<svg width="78" height="78" viewBox="0 0 78 78" fill="none" xmlns="http://www.w3.org/2000/svg">
<path d="M57.4719 38.9969C57.4719 40.0758 57.0482 41.5377 56.0909 43.202C55.148 44.8413 53.7559 46.555 52.0039 48.1113C48.4863 51.2359 43.6999 53.5719 38.5094 53.5719C33.3188 53.5719 28.5324 51.2359 25.0149 48.1113C23.2628 46.555 21.8708 44.8413 20.9279 43.202C19.9706 41.5377 19.5469 40.0758 19.5469 38.9969C19.5469 37.9179 19.9706 36.456 20.9279 34.7918C21.8708 33.1525 23.2628 31.4388 25.0149 29.8825C28.5324 26.7578 33.3188 24.4219 38.5094 24.4219C43.6999 24.4219 48.4863 26.7578 52.0039 29.8825C53.7559 31.4388 55.148 33.1525 56.0909 34.7918C57.0482 36.456 57.4719 37.9179 57.4719 38.9969Z" stroke="#00A3A3" stroke-width="4"/>
<circle cx="39.0016" cy="39.0016" r="6.775" stroke="#00A3A3" stroke-width="4"/>
<circle cx="39" cy="39" r="37" stroke="#00A3A3" stroke-width="4"/>
</svg>
