<svg width="78" height="78" viewBox="0 0 78 78" fill="none" xmlns="http://www.w3.org/2000/svg">
<path d="M36.8144 53.3625H42.7312V59.5469H36.8144V53.3625ZM26.7945 29.5467C26.7945 25.2652 28.0037 21.8261 30.4219 19.2295C32.8402 16.613 36.1603 15.3048 40.3823 15.3048C44.2872 15.3048 47.4091 16.4247 49.7481 18.6646C52.1069 20.8846 53.2863 23.729 53.2863 27.1978C53.2863 29.2989 52.8502 31.0036 51.978 32.3118C51.1257 33.6201 49.3913 35.5428 46.7748 38.08C44.8719 39.9234 43.6331 41.4893 43.0583 42.7777C42.5032 44.0463 42.2257 45.9294 42.2257 48.4269H36.9333C36.9333 45.5924 37.2703 43.3129 37.9443 41.5884C38.6182 39.8441 40.0949 37.852 42.3744 35.6121L44.753 33.2633C45.4666 32.5893 46.0414 31.8857 46.4775 31.1523C47.2704 29.8638 47.6668 28.5259 47.6668 27.1384C47.6668 25.1958 47.0821 23.511 45.9126 22.0838C44.7629 20.6567 42.8501 19.9431 40.1742 19.9431C36.864 19.9431 34.5746 21.172 33.306 23.6299C32.5924 24.9976 32.186 26.9699 32.0869 29.5467H26.7945Z" fill="#00A3A3"/>
<circle cx="38.9938" cy="38.9938" r="36.7782" stroke="#00A3A3" stroke-width="4.43111"/>
</svg>
