<svg width="514" height="556" viewBox="0 0 514 556" fill="none" xmlns="http://www.w3.org/2000/svg">
<path d="M373.968 140.433L324.648 185.327L321.104 176.82L336.08 163.491L326.741 141.069L306.599 141.994L303.254 133.963L370.126 131.21L373.968 140.433ZM333.612 140.54L341.228 158.828L362.983 139.597L333.612 140.54Z" fill="#B10DC9"/>
<path d="M340.365 201.48L352.419 230.422L345.66 233.237L330.394 196.583L387.403 172.838L390.615 180.551L340.365 201.48Z" fill="#B10DC9"/>
<path d="M367.212 263.32L379.267 292.262L372.508 295.077L357.242 258.423L414.251 234.678L417.463 242.391L367.212 263.32Z" fill="#B10DC9"/>
<path fill-rule="evenodd" clip-rule="evenodd" d="M367.182 264.039L363.884 256.27L355.739 237.083L349 239.943L368.761 285.861L375.5 283L367.182 264.039Z" fill="#B10DC9"/>
<path d="M348.683 265.493L351.928 273.285L294.919 297.03L291.674 289.237L348.683 265.493Z" fill="#B10DC9"/>
<path d="M270.859 301.907L215.887 305.676L211.35 294.783L268.359 271.038L271.406 278.353L237.773 292.361C236.58 292.858 234.672 293.653 231.935 294.699C229.232 295.825 226.336 296.938 223.235 298.23L278.128 294.494L281.307 302.127L240.025 338.542L241.775 337.813C243.206 337.217 245.24 336.276 248.069 335.005C250.932 333.812 253.045 332.839 254.397 332.276L288.03 318.268L291.11 325.662L234.101 349.407L229.497 338.355L270.859 301.907Z" fill="#B10DC9"/>
<path d="M142.062 330.069L156.236 364.099L173.49 356.913L160.375 325.427L166.975 322.678L180.089 354.164L199.49 346.084L185.051 311.417L191.809 308.602L209.394 350.823L152.385 374.567L135.065 332.983L142.062 330.069Z" fill="#B10DC9"/>
<path d="M108.534 387.346C111.648 385.862 113.974 384.053 115.478 381.841C118.122 377.66 118.176 372.413 115.46 365.893C114.268 363.031 112.745 360.493 110.91 358.551C107.366 354.523 103.576 353.488 99.4415 355.211C96.3405 356.502 94.5116 358.383 93.9547 360.855C93.5105 363.372 93.6889 366.937 94.4568 371.469L95.9529 379.989C96.9261 385.462 97.1442 389.57 96.6535 392.2C95.7915 396.851 92.9752 400.17 88.2046 402.157C83.1159 404.277 78.1401 404.203 73.4231 402.062C68.5934 399.875 64.9168 395.529 62.2013 389.009C59.7176 383.045 59.0293 377.361 60.1366 371.954C61.2769 366.628 65.107 362.606 71.3884 359.99L74.402 367.226C71.5461 368.882 69.492 370.67 68.4316 372.605C66.4037 376.248 66.6614 380.9 68.9796 386.465C70.8672 390.997 73.2122 393.94 75.9484 395.133C78.6845 396.326 81.3082 396.352 83.8526 395.293C86.6355 394.134 88.2391 392.159 88.5509 389.324C88.6837 387.402 88.2933 383.553 87.3136 377.616L85.8307 368.904C85.0826 364.643 85.05 361.205 85.6666 358.429C86.8797 353.725 89.9345 350.306 95.0232 348.187C101.384 345.538 106.877 345.956 111.468 349.362C116.092 352.848 119.662 357.612 122.212 363.734C125.16 370.811 125.649 377.138 123.727 382.604C121.758 388.182 117.736 392.19 111.58 394.661L108.534 387.346Z" fill="#B10DC9"/>
</svg>
