<svg width="48" height="62" viewBox="0 0 48 62" fill="none" xmlns="http://www.w3.org/2000/svg">
<path d="M14.546 37.7344L11.1246 47.8085C10.7444 49.0124 12.5312 52.3704 22.7194 56.172C32.9076 59.9736 40.5241 58.7698 43.0589 57.6926L46.2902 46.8582" stroke="black" stroke-width="1.5"/>
<path d="M43.2498 56.8731C42.5329 59.4586 34.741 59.5549 25.8462 57.0884C16.9515 54.6219 10.3221 50.3061 11.0391 47.7207" stroke="black" stroke-width="1.5"/>
<path d="M21.5376 29.0662L14.7435 36.9253L12.6135 33.6568L10.6303 33.9139L11.9524 29.8741L7.76579 29.0662L9.45514 25.6141L4.31366 23.8145L5.19506 19.9217L2.33052 17.6448L4.31366 13.0542L2 11.4383L5.45213 8.27994L3.50572 3.43227L9.16134 5.81938L11.2914 2L13.5683 6.70078L15.5147 6.07645L15.9187 8.97771L18.7098 9.52859L18.2324 13.3112L22.2721 14.7068L21.5376 18.3058L23.9982 21.3907L22.2721 24.2552L24.4021 27.2299L21.5376 29.0662Z" stroke="black" stroke-width="1.5"/>
<path d="M11.0312 47.7199L14.4467 37.4736" stroke="black" stroke-width="1.5"/>
<path d="M43.2734 56.9031L46.6521 46.6201" stroke="black" stroke-width="1.5"/>
<path d="M15.4366 29.5675C15.3288 29.5618 15.228 29.5027 15.1417 29.4423C14.6336 29.0867 14.2487 28.5203 13.9038 28.0166C12.8021 26.4081 11.7565 24.7351 10.8576 23.005C9.46973 20.3339 8.27676 17.5101 7.66673 14.5522C7.36575 13.0928 7.28718 11.3856 8.32047 10.1776C9.24654 9.09495 10.7015 9.23728 11.8257 9.88273C12.4857 10.2617 13.0381 10.7945 13.5588 11.3432C14.3641 12.1918 15.0848 13.1219 15.6647 14.139C16.3105 15.2716 16.8536 16.4545 17.3255 17.6693C17.9388 19.248 18.5108 20.8967 18.6733 22.5933C18.7226 23.1077 18.7379 23.5151 18.7206 24.0315C18.7089 24.3819 18.7175 24.9178 18.5023 25.2361C18.3447 25.4691 17.8854 25.5121 17.6399 25.5254C17.2594 25.5461 16.8185 25.5371 16.4603 25.3919C15.8451 25.1424 15.3045 24.5718 14.8746 24.0858C13.8752 22.9558 13.0945 21.5812 12.5712 20.1674C12.3304 19.5167 12.1665 18.8291 12.0274 18.1506C11.8763 17.414 11.6241 16.5234 11.7288 15.771C11.7936 15.3055 11.779 14.9428 12.0274 14.5369C12.2214 14.2196 12.699 14.2944 12.9134 14.5369C13.2568 14.9254 13.7467 15.0356 14.0802 15.8694C14.4137 16.7031 14.7808 17.526 15.1512 18.3439C15.6114 19.3602 15.7479 20.3898 15.7064 21.5445C15.6826 22.2072 14.9713 21.6541 14.8009 21.3456C14.5198 20.8363 14.5014 20.6981 14.2628 20.1674C14.1822 19.988 13.9508 19.3728 13.8634 19.1979C13.8223 19.1158 13.8711 19.1674 13.9093 19.152" stroke="black" stroke-width="1.5" stroke-linecap="round"/>
<ellipse cx="30.566" cy="42.042" rx="16.7465" ry="4.85799" transform="rotate(15.4987 30.566 42.042)" stroke="black" stroke-width="1.5"/>
</svg>
