<svg width="80" height="80" viewBox="0 0 80 80" fill="none" xmlns="http://www.w3.org/2000/svg">
<g clip-path="url(#clip0_5073_9933)">
<path d="M64.9445 63.8791L69.0113 68.8161L69.0332 62.3444L64.9445 63.8791ZM70.7185 55.7227L70.7997 70.4477L68.7293 71.2249L59.2578 60.0243L61.1462 59.3154L63.9521 62.7098L68.9591 60.8304L68.9166 56.399L70.7185 55.7227Z" fill="#E1018D"/>
<path d="M61.4923 73.9305L59.7685 74.5777L55.561 63.3681L49.1159 65.7873L48.5469 64.2711L56.7159 61.2051L61.4923 73.9305Z" fill="#9500FF"/>
<path d="M47.6876 79.3544L45.9635 80.0015L41.7563 68.7919L35.3112 71.2109L34.7422 69.695L42.911 66.6289L47.6876 79.3544Z" fill="#9500FF"/>
<path d="M36.8281 68.8189L37.3972 70.3351L41.6853 68.7254L45.8926 79.9352L47.6425 79.2782L43.4352 68.0687L47.7231 66.4593L47.1543 64.9434L36.8281 68.8189Z" fill="#9500FF"/>
<path d="M34.9766 52.3665L36.7177 51.7129L41.4941 64.4384L39.7529 65.092L34.9766 52.3665Z" fill="#18A595"/>
<path d="M23.9297 38.5819L26.3986 37.6553L34.0927 47.0423L33.684 34.9207L36.1268 34.0039L40.9034 46.7294L39.2662 47.3439L36.447 39.8332C36.3496 39.5734 36.194 39.1412 35.9799 38.5362C35.7662 37.9311 35.5302 37.2851 35.2721 36.5978L35.671 48.6933L33.9646 49.334L26.2804 39.9728L26.4264 40.3627C26.5435 40.6745 26.7281 41.1489 26.9803 41.7856C27.2362 42.4142 27.4204 42.8788 27.5331 43.1791L30.3522 50.6897L28.7063 51.3074L23.9297 38.5819Z" fill="#0086FC"/>
<path d="M19.0391 20.4099L28.317 16.9277L28.9021 18.487L21.3049 21.3385L22.7551 25.202L29.7807 22.5651L30.3335 24.0378L23.3078 26.6749L24.9271 30.9889L32.6543 28.0886L33.2234 29.6045L23.8154 33.1357L19.0391 20.4099Z" fill="#F9015D"/>
<path d="M16.5767 10.6693C16.8882 11.376 17.2787 11.8982 17.748 12.2359C18.6361 12.8645 19.8021 12.9079 21.2461 12.366C21.8929 12.1232 22.4471 11.8097 22.9091 11.4254C23.8026 10.6815 24.0762 9.84757 23.7293 8.92354C23.4692 8.23053 23.0673 7.81803 22.5235 7.68608C21.9763 7.56204 21.1947 7.56878 20.179 7.70627L18.3086 7.96347C17.0871 8.13206 16.1852 8.1511 15.6024 8.0206C14.5946 7.79275 13.8921 7.15041 13.4955 6.09355C13.0663 4.95007 13.1096 3.86313 13.6256 2.8327C14.1415 1.8023 15.1243 1.01505 16.5737 0.470965C17.9078 -0.029756 19.1611 -0.131209 20.3338 0.166606C21.5098 0.4565 22.3637 1.30891 22.8945 2.7238L21.2747 3.33185C20.9323 2.68288 20.5512 2.2296 20.1318 1.97198C19.3569 1.5051 18.3401 1.50791 17.0809 1.98046C16.0647 2.36198 15.4142 2.84986 15.1299 3.44414C14.8457 4.0384 14.8097 4.61852 15.0221 5.18449C15.2563 5.80821 15.6875 6.16689 16.3155 6.26056C16.7256 6.3175 17.5834 6.2591 18.8887 6.08544L20.8259 5.82279C21.7601 5.69617 22.5252 5.71544 23.1209 5.88059C24.1526 6.17198 24.8809 6.88361 25.3059 8.01555C25.8348 9.42468 25.6991 10.6254 24.8986 11.6176C24.104 12.6077 23.0282 13.3574 21.671 13.8668C20.0886 14.4607 18.6979 14.5214 17.4994 14.0489C16.3029 13.5821 15.4555 12.6583 14.9569 11.2773L16.5767 10.6693Z" fill="#3332FF"/>
</g>
<defs>
<clipPath id="clip0_5073_9933">
<rect width="80" height="80" fill="white"/>
</clipPath>
</defs>
</svg>
