<svg width="763" height="1078" viewBox="0 0 763 1078" fill="none" xmlns="http://www.w3.org/2000/svg">
<path d="M64.2946 57.9401L76.2439 64.512L60.8143 92.567L93.2854 110.425L108.715 82.3703L120.729 88.9779L82.4768 158.531L70.4625 151.923L87.5708 120.816L55.0997 102.958L37.9914 134.065L26.042 127.493L64.2946 57.9401ZM126.734 119.432C129.197 115.261 131.962 112.129 135.03 110.038C138.121 107.904 141.422 106.618 144.933 106.18C148.445 105.743 152.125 106.075 155.973 107.177C159.889 108.259 163.882 109.92 167.952 112.158C171.329 114.015 174.407 116.159 177.187 118.59C180.01 121.045 182.226 123.73 183.837 126.646C185.471 129.519 186.346 132.594 186.461 135.871C186.643 139.129 185.769 142.511 183.841 146.018L161.589 186.477C160.97 187.603 160.737 188.744 160.891 189.9C161.069 191.012 161.828 191.938 163.171 192.676C163.777 193.009 164.428 193.311 165.125 193.582C165.846 193.809 166.589 194.048 167.353 194.299L162.817 202.547C161.678 202.259 160.551 201.949 159.437 201.618C158.365 201.311 157.158 200.788 155.816 200.05C153.738 198.907 152.036 197.746 150.712 196.566C149.43 195.41 148.484 194.157 147.874 192.806C147.33 191.436 147.122 189.968 147.25 188.403C147.402 186.794 147.903 185.012 148.753 183.055C146.4 183.847 144.02 184.484 141.613 184.964C139.23 185.402 136.735 185.58 134.129 185.5C131.546 185.377 128.844 184.906 126.024 184.088C123.179 183.313 120.177 182.056 117.016 180.318C114.332 178.842 111.951 176.968 109.873 174.698C107.838 172.451 106.267 169.923 105.161 167.116C104.098 164.332 103.639 161.373 103.784 158.238C103.953 155.061 104.942 151.826 106.752 148.536C108.728 144.943 111.037 142.18 113.678 140.249C116.342 138.275 119.125 136.958 122.026 136.298C124.95 135.594 127.93 135.456 130.965 135.885C134 136.314 136.9 137.091 139.664 138.216L160.533 146.564C162.514 147.371 164.357 147.455 166.063 146.814C167.836 146.154 169.472 144.46 170.972 141.732C173.282 137.533 173.551 133.762 171.781 130.419C170.077 127.058 166.649 123.96 161.497 121.126C156.215 118.221 151.656 117.18 147.82 118.003C144.008 118.782 140.703 121.307 137.904 125.575L126.734 119.432ZM162.533 156.461C161.2 156.63 159.688 156.56 157.997 156.25C156.374 155.921 154.634 155.444 152.779 154.818C150.924 154.193 148.972 153.486 146.925 152.698C144.901 151.867 142.865 151.057 140.817 150.269C138.485 149.382 136.256 148.719 134.128 148.282C132 147.845 130.015 147.712 128.173 147.883C126.331 148.054 124.684 148.587 123.234 149.481C121.807 150.331 120.618 151.623 119.665 153.354C118.57 155.346 117.909 157.266 117.682 159.115C117.498 160.987 117.661 162.741 118.172 164.375C118.726 166.033 119.64 167.551 120.913 168.927C122.186 170.304 123.753 171.504 125.614 172.528C126.783 173.171 128.197 173.779 129.855 174.353C131.537 174.883 133.334 175.308 135.245 175.626C137.157 175.944 139.108 176.087 141.1 176.054C143.158 176.002 145.139 175.682 147.042 175.093C148.945 174.504 150.705 173.611 152.322 172.414C153.939 171.217 155.295 169.623 156.39 167.631L162.533 156.461ZM212.363 139.374L224.312 145.946L191.774 205.108L216.842 218.895L249.38 159.733L261.329 166.304L228.791 225.467L253.794 239.218L286.332 180.055L298.281 186.627L260.029 256.18L174.11 208.927L212.363 139.374ZM315.881 196.306L327.83 202.878L298.507 256.196L298.766 256.339L362.249 221.808L375.952 229.344L337.7 298.897L325.685 292.29L355.009 238.972L354.749 238.829L291.331 273.396L277.628 265.859L315.881 196.306Z" fill="black"/>
<path d="M412.886 490.94L424.836 497.512L409.406 525.567L441.877 543.425L457.307 515.37L469.321 521.978L431.069 591.531L419.054 584.923L436.163 553.816L403.691 535.958L386.583 567.065L374.634 560.493L412.886 490.94ZM475.325 552.432C477.789 548.261 480.554 545.129 483.622 543.038C486.713 540.904 490.014 539.618 493.525 539.18C497.036 538.743 500.716 539.075 504.565 540.177C508.481 541.259 512.474 542.92 516.544 545.158C519.921 547.015 522.999 549.159 525.779 551.59C528.601 554.045 530.818 556.73 532.429 559.646C534.063 562.519 534.938 565.594 535.052 568.871C535.234 572.129 534.361 575.511 532.432 579.018L510.181 619.477C509.562 620.603 509.329 621.744 509.483 622.9C509.66 624.012 510.42 624.938 511.762 625.676C512.368 626.009 513.02 626.311 513.717 626.582C514.438 626.809 515.18 627.048 515.945 627.299L511.409 635.547C510.27 635.259 509.143 634.949 508.028 634.618C506.957 634.311 505.75 633.788 504.408 633.05C502.33 631.907 500.628 630.746 499.303 629.566C498.022 628.41 497.076 627.157 496.465 625.806C495.922 624.436 495.714 622.968 495.842 621.403C495.993 619.794 496.494 618.012 497.345 616.055C494.992 616.847 492.612 617.484 490.205 617.964C487.821 618.402 485.327 618.58 482.72 618.5C480.138 618.377 477.436 617.906 474.616 617.088C471.771 616.313 468.769 615.056 465.608 613.318C462.924 611.842 460.543 609.968 458.464 607.698C456.43 605.451 454.859 602.923 453.753 600.116C452.69 597.332 452.231 594.373 452.376 591.238C452.545 588.061 453.534 584.826 455.343 581.536C457.32 577.943 459.628 575.18 462.269 573.249C464.934 571.275 467.717 569.958 470.618 569.298C473.542 568.594 476.522 568.456 479.557 568.885C482.592 569.314 485.491 570.091 488.256 571.216L509.125 579.564C511.106 580.371 512.949 580.455 514.655 579.814C516.427 579.154 518.064 577.46 519.564 574.732C521.874 570.533 522.143 566.762 520.372 563.419C518.669 560.058 515.241 556.96 510.089 554.126C504.807 551.221 500.248 550.18 496.412 551.003C492.6 551.782 489.294 554.307 486.496 558.575L475.325 552.432ZM511.125 589.461C509.792 589.63 508.28 589.56 506.589 589.25C504.965 588.921 503.226 588.444 501.371 587.818C499.516 587.193 497.564 586.486 495.516 585.698C493.492 584.867 491.456 584.057 489.409 583.269C487.077 582.382 484.848 581.719 482.72 581.282C480.592 580.845 478.607 580.712 476.764 580.883C474.922 581.054 473.276 581.587 471.826 582.481C470.399 583.331 469.21 584.623 468.257 586.354C467.162 588.346 466.501 590.266 466.273 592.115C466.089 593.987 466.253 595.741 466.764 597.375C467.318 599.033 468.231 600.551 469.504 601.927C470.777 603.304 472.345 604.504 474.206 605.528C475.375 606.171 476.789 606.779 478.447 607.353C480.129 607.883 481.926 608.308 483.837 608.626C485.749 608.944 487.7 609.087 489.692 609.054C491.75 609.002 493.731 608.682 495.634 608.093C497.536 607.504 499.296 606.611 500.913 605.414C502.53 604.217 503.887 602.623 504.982 600.631L511.125 589.461ZM560.954 572.374L572.904 578.946L540.366 638.108L565.434 651.895L597.972 592.733L609.921 599.304L577.383 658.467L602.386 672.218L634.924 613.055L646.873 619.627L608.62 689.18L522.702 641.927L560.954 572.374ZM664.472 629.306L676.422 635.878L647.098 689.196L647.358 689.339L710.841 654.808L724.544 662.344L686.291 731.897L674.277 725.29L703.6 671.972L703.341 671.829L639.923 706.396L626.22 698.859L664.472 629.306Z" fill="black"/>
<path d="M112.814 825.577L96.4816 858.842L157.09 888.599L151.08 900.841L79.8265 865.857L108.212 808.043L179.465 843.027L173.422 855.334L112.814 825.577ZM116.737 790.679L122.748 778.437L132.528 783.239L132.658 782.973C131.409 781.369 130.347 779.608 129.471 777.692C128.617 775.732 128.072 773.648 127.835 771.439C127.575 769.165 127.679 766.767 128.147 764.244C128.637 761.678 129.589 758.953 131.005 756.07C132.878 752.255 135.406 748.955 138.59 746.17C141.774 743.385 145.494 741.358 149.75 740.09C154.005 738.822 158.743 738.478 163.962 739.059C169.137 739.618 174.652 741.335 180.506 744.209C187.824 747.802 193.686 751.616 198.09 755.65C202.472 759.618 205.607 763.772 207.495 768.111C209.404 772.406 210.144 776.843 209.713 781.42C209.282 785.997 207.901 790.659 205.571 795.405C204.417 797.755 203.029 799.799 201.406 801.534C199.783 803.269 198.081 804.718 196.3 805.88C194.496 806.976 192.712 807.806 190.948 808.372C189.14 808.915 187.518 809.192 186.082 809.202L185.951 809.468L222.077 827.205L216.066 839.447L116.737 790.679ZM158.61 796.375C162.468 798.269 166.224 799.645 169.876 800.503C173.484 801.338 176.867 801.568 180.024 801.192C183.203 800.771 186.057 799.723 188.586 798.047C191.093 796.305 193.141 793.815 194.73 790.578C196.385 787.207 197.147 783.975 197.014 780.882C196.858 777.723 195.975 774.758 194.364 771.985C192.753 769.212 190.513 766.654 187.646 764.311C184.734 761.945 181.348 759.815 177.49 757.921C173.454 755.939 169.565 754.498 165.824 753.597C162.083 752.696 158.601 752.445 155.377 752.844C152.154 753.243 149.267 754.357 146.717 756.188C144.145 757.952 142.031 760.52 140.376 763.891C138.786 767.128 138.091 770.282 138.29 773.353C138.466 776.357 139.382 779.256 141.038 782.05C142.715 784.8 145.054 787.38 148.054 789.789C151.055 792.198 154.574 794.393 158.61 796.375ZM154.302 714.169L160.312 701.928L214.933 728.746L215.063 728.479L177.624 666.667L184.516 652.63L255.77 687.613L249.727 699.921L195.106 673.104L194.975 673.37L232.447 735.115L225.555 749.153L154.302 714.169ZM193.369 634.6L199.379 622.359L228.12 636.47L244.452 603.205L215.711 589.094L221.754 576.786L293.007 611.77L286.964 624.077L255.097 608.431L238.764 641.696L270.632 657.342L264.622 669.584L193.369 634.6ZM230.606 558.756L236.616 546.515L297.225 576.272L313.557 543.007L252.949 513.25L258.992 500.942L319.6 530.699L323.912 521.918L351.987 535.702L346.369 547.145L328.938 538.587L301.859 593.74L230.606 558.756ZM268.824 480.917L274.834 468.675L329.455 495.493L329.585 495.227L292.146 433.414L299.038 419.377L370.292 454.36L364.249 466.668L309.628 439.851L309.497 440.117L346.969 501.863L340.077 515.9L268.824 480.917ZM340.878 361.067L324.545 394.332L385.154 424.089L379.144 436.331L307.89 401.347L336.276 343.533L407.529 378.517L401.486 390.825L340.878 361.067ZM378.577 257.377L384.587 245.136L455.84 280.119L449.83 292.361L378.577 257.377ZM345.128 325.503L351.138 313.262L377.95 326.426L388.468 305.003C390.362 301.144 392.593 297.946 395.16 295.409C397.705 292.805 400.475 290.917 403.472 289.747C406.424 288.554 409.548 288.078 412.842 288.32C416.114 288.495 419.457 289.421 422.873 291.098C426.332 292.796 429.154 294.897 431.337 297.4C433.499 299.838 435.032 302.6 435.938 305.687C436.8 308.752 436.979 312.088 436.475 315.693C435.993 319.254 434.804 322.964 432.91 326.823L416.381 360.487L345.128 325.503ZM412.612 343.444L421.921 324.483C422.966 322.354 423.714 320.271 424.163 318.235C424.634 316.155 424.708 314.21 424.386 312.4C424.019 310.568 423.245 308.895 422.062 307.378C420.836 305.84 419.092 304.516 416.83 303.406C414.612 302.317 412.531 301.79 410.587 301.827C408.664 301.818 406.866 302.284 405.194 303.225C403.499 304.099 401.939 305.425 400.516 307.203C399.07 308.915 397.759 310.969 396.583 313.364L387.796 331.26L412.612 343.444Z" fill="black"/>
<path d="M460.791 1018.5L466.801 1006.26L521.421 1033.08L521.552 1032.81L484.115 970.997L491.008 956.959L562.26 991.945L556.216 1004.25L501.596 977.434L501.466 977.7L538.935 1039.45L532.043 1053.48L460.791 1018.5ZM600.284 914.506L573.236 969.592L590.666 978.151L585.047 989.593L556.972 975.808L561.579 966.427C557.747 962.124 553.63 958.176 549.229 954.584C544.783 950.97 540.185 947.611 535.434 944.507C530.638 941.382 525.711 938.467 520.654 935.764C515.596 933.06 510.472 930.434 505.283 927.886L529.718 878.123L590.325 907.882L595.258 897.837L623.333 911.622L617.714 923.065L600.284 914.506ZM584.315 920.124L534.352 895.591L521.677 921.404C525.561 923.696 529.544 926.065 533.628 928.51C537.733 930.912 541.795 933.457 545.815 936.146C549.811 938.769 553.665 941.569 557.377 944.548C561.111 947.482 564.547 950.628 567.687 953.987L584.315 920.124ZM618.724 819.442C621.589 821.454 624.105 824.01 626.271 827.111C628.437 830.211 630.041 833.668 631.085 837.484C632.129 841.299 632.468 845.374 632.102 849.708C631.801 854.019 630.573 858.37 628.417 862.761C626.065 867.551 623.111 871.605 619.555 874.923C615.977 878.175 611.883 880.514 607.275 881.939C602.644 883.298 597.52 883.645 591.903 882.978C586.285 882.311 580.239 880.388 573.763 877.209C569.417 875.074 565.72 872.681 562.674 870.03C559.605 867.312 557.087 864.479 555.121 861.532C553.133 858.519 551.663 855.458 550.713 852.349C549.718 849.219 549.155 846.162 549.023 843.18C548.868 840.132 549.09 837.213 549.689 834.424C550.243 831.614 551.086 829.056 552.219 826.749C554.614 821.871 557.535 817.772 560.98 814.455C564.426 811.138 568.364 808.778 572.796 807.376C577.205 805.908 582.063 805.486 587.371 806.111C592.656 806.669 598.337 808.44 604.414 811.424L610.534 814.429L584.956 866.521C588.437 868.175 591.826 869.234 595.122 869.696C598.373 870.137 601.422 869.982 604.267 869.233C607.112 868.483 609.688 867.161 611.994 865.266C614.278 863.305 616.183 860.772 617.707 857.667C619.253 854.518 620.117 851.639 620.297 849.03C620.477 846.421 620.239 844.048 619.582 841.909C618.926 839.77 617.973 837.843 616.723 836.129C615.495 834.37 614.213 832.777 612.877 831.35L618.724 819.442ZM594.711 821.935C591.208 820.325 587.864 819.344 584.68 818.991C581.517 818.594 578.601 818.814 575.934 819.651C573.243 820.421 570.844 821.776 568.737 823.713C566.585 825.629 564.791 828.051 563.353 830.978C561.981 833.772 561.273 836.617 561.227 839.512C561.137 842.385 561.633 845.188 562.713 847.921C563.749 850.631 565.336 853.172 567.475 855.543C569.569 857.892 572.136 859.951 575.176 861.719L594.711 821.935ZM577.673 780.459L583.684 768.218L638.304 795.037L638.434 794.771L600.997 732.958L607.89 718.92L679.142 753.907L673.099 766.214L618.479 739.395L618.348 739.661L655.818 801.408L648.925 815.445L577.673 780.459Z" fill="black"/>
</svg>
