<svg width="88" height="88" viewBox="0 0 88 88" fill="none" xmlns="http://www.w3.org/2000/svg">
<circle cx="44" cy="44" r="43.25" fill="#FFF619" stroke="black" stroke-width="1.5"/>
<path d="M64.0873 73.638C63.2689 76.5894 54.3744 76.6993 44.2209 73.8838C34.0675 71.0682 26.5 66.1417 27.3184 63.1904" stroke="black" stroke-width="1.5"/>
<path d="M39.3024 41.8964L31.5468 50.8676L29.1154 47.1366L26.8516 47.4301L28.3608 42.8186L23.5817 41.8964L25.5101 37.9558L19.6411 35.9015L20.6472 31.4578L17.3773 28.8587L19.6411 23.6185L17 21.7739L20.9406 18.1686L18.7188 12.635L25.1747 15.3599L27.6062 11L30.2053 16.366L32.4272 15.6533L32.8884 18.9651L36.0744 19.594L35.5295 23.9119L40.1408 25.505L39.3024 29.6133L42.1112 33.1347L40.1408 36.4046L42.5722 39.8002L39.3024 41.8964Z" stroke="black" stroke-width="1.5"/>
<path d="M27.3203 63.1894L31.2191 51.4932" stroke="black" stroke-width="1.5"/>
<path d="M64.125 73.6737L67.9818 61.9355" stroke="black" stroke-width="1.5"/>
<path d="M32.3454 42.4691C32.2223 42.4625 32.1073 42.3951 32.0088 42.3261C31.4288 41.9202 30.9894 41.2737 30.5957 40.6987C29.3381 38.8626 28.1445 36.9528 27.1184 34.9779C25.5341 31.9288 24.1724 28.7054 23.476 25.3289C23.1324 23.663 23.0427 21.7142 24.2222 20.3353C25.2794 19.0994 26.9402 19.2619 28.2235 19.9987C28.9769 20.4313 29.6075 21.0395 30.2019 21.6658C31.1211 22.6345 31.9438 23.6962 32.6058 24.8573C33.343 26.1501 33.9629 27.5004 34.5016 28.8871C35.2017 30.6892 35.8546 32.5712 36.0401 34.5079C36.0964 35.0951 36.1139 35.5602 36.0941 36.1497C36.0808 36.5496 36.0906 37.1614 35.8449 37.5247C35.665 37.7907 35.1407 37.8398 34.8605 37.855C34.4261 37.8786 33.9228 37.8683 33.514 37.7026C32.8117 37.4178 32.1946 36.7664 31.7039 36.2116C30.563 34.9217 29.6719 33.3526 29.0745 31.7387C28.7996 30.996 28.6125 30.2111 28.4537 29.4365C28.2813 28.5957 27.9934 27.5791 28.1129 26.7202C28.1869 26.1888 28.1702 25.7748 28.4537 25.3115C28.6752 24.9493 29.2204 25.0346 29.4651 25.3115C29.8571 25.7549 30.4163 25.8807 30.797 26.8325C31.1777 27.7842 31.5968 28.7236 32.0196 29.6572C32.5449 30.8173 32.7007 31.9926 32.6534 33.3107C32.6262 34.0672 31.8142 33.4358 31.6197 33.0837C31.2989 32.5023 31.2778 32.3445 31.0055 31.7387C30.9135 31.534 30.6493 30.8317 30.5496 30.632C30.5026 30.5383 30.5584 30.5972 30.602 30.5796" stroke="black" stroke-width="1.5" stroke-linecap="round"/>
<path d="M48.1294 62.0526C58.3031 64.8738 67.214 64.7683 68.0324 61.817C68.8508 58.8657 61.2668 54.1862 51.0931 51.365C40.9193 48.5439 32.0084 48.6493 31.19 51.6006C30.3716 54.5519 37.9556 59.2314 48.1294 62.0526Z" stroke="black" stroke-width="1.5"/>
</svg>
